<?xml version="1.0" encoding="UTF-8"?>
<svg id="Layer_2" data-name="Layer 2" xmlns="http://www.w3.org/2000/svg" viewBox="0 0 1107.19 207.01">
  <defs>
    <style>
      .cls-1 {
        fill: #fff;
      }

      .cls-1, .cls-2 {
        stroke-width: 0px;
      }

      .cls-2 {
        fill: #fd3807;
      }
    </style>
  </defs>
  <g id="Layer_1-2" data-name="Layer 1">
    <g>
      <g>
        <path class="cls-1" d="M359.77,119.3l-27.05-38.85h-40.41v38.85h-31.74V2.24h85.67c8.21,0,15.2.78,20.98,2.34,5.78,1.56,10.49,3.96,14.13,7.2,3.64,3.24,6.27,7.32,7.89,12.23,1.62,4.92,2.43,10.73,2.43,17.43,0,10.18-2.03,18.12-6.07,23.84-4.05,5.73-10.52,9.86-19.42,12.4l31.74,41.62h-38.15ZM292.31,26.69v30.52h52.55c5.31,0,9.07-1.01,11.27-3.03,2.2-2.02,3.3-6.16,3.3-12.4,0-3.12-.26-5.64-.78-7.54-.52-1.91-1.36-3.44-2.51-4.6-1.16-1.15-2.66-1.93-4.51-2.34-1.85-.4-4.1-.61-6.76-.61h-52.55Z"/>
        <path class="cls-1" d="M446.65,119.3c-8.56,0-15.78-.7-21.68-2.08-5.9-1.39-10.7-3.49-14.39-6.33-3.7-2.83-6.39-6.42-8.07-10.75-1.68-4.34-2.51-9.45-2.51-15.35s.84-11.04,2.51-15.43c1.67-4.39,4.36-8.01,8.07-10.84,3.7-2.83,8.5-4.94,14.39-6.33,5.9-1.39,13.12-2.08,21.68-2.08h48.73c-.12-3.47-.55-6.62-1.3-9.45-.75-2.83-1.99-5.29-3.73-7.37-1.73-2.08-4.13-3.7-7.2-4.86-3.06-1.15-6.97-1.73-11.71-1.73h-68.33V2.24h73.01c16.65,0,29.42,4.16,38.32,12.48,8.9,8.33,13.35,21.16,13.35,38.5v66.07h-81.16ZM495.38,70.05h-48.73c-5.09,0-8.76.87-11.01,2.6-2.26,1.73-3.38,5.32-3.38,10.75,0,2.66.26,4.86.78,6.59.52,1.73,1.36,3.09,2.51,4.07,1.15.98,2.66,1.65,4.51,2,1.85.34,4.04.52,6.59.52h48.73v-26.53Z"/>
        <path class="cls-1" d="M637.24,119.3V39.87c0-3.7-1.45-6.82-4.34-9.37-2.89-2.54-6.65-3.82-11.27-3.82h-49.6v92.6h-32.26V2.24h84.63c14.34,0,25.38,3.01,33.12,9.02,7.74,6.01,11.62,14.74,11.62,26.18v81.85h-31.91Z"/>
        <path class="cls-1" d="M730.18,119.3c-16.53,0-29.22-4.77-38.06-14.31-8.84-9.54-13.27-24.25-13.27-44.14s4.42-34.62,13.27-44.22c8.84-9.59,21.53-14.39,38.06-14.39h76.48v24.45h-71.45c-5.09,0-9.19.75-12.31,2.26-3.12,1.5-5.55,3.7-7.28,6.59-1.73,2.89-2.89,6.45-3.47,10.67-.58,4.22-.87,9.1-.87,14.65s.29,10.29.87,14.57c.58,4.28,1.73,7.89,3.47,10.84,1.73,2.95,4.16,5.2,7.28,6.76,3.12,1.56,7.23,2.34,12.31,2.34h42.66v-24.45h-38.84v-21.16h68.15v69.54h-77Z"/>
        <path class="cls-1" d="M880.02,119.3c-20.35,0-35.78-5-46.3-15-10.52-10-15.78-24.48-15.78-43.44s5.26-33.61,15.78-43.61c10.52-10,25.95-15,46.3-15h24.63c20.35,0,35.78,5,46.3,15,10.52,10,15.78,24.54,15.78,43.61s-5.26,33.44-15.78,43.44c-10.52,10-25.95,15-46.3,15h-24.63ZM898.92,96.23c7.4,0,13.38-.98,17.95-2.95,4.57-1.97,8.12-4.6,10.67-7.89,2.54-3.3,4.28-7.05,5.2-11.27.92-4.22,1.39-8.64,1.39-13.27s-.46-9.04-1.39-13.27c-.93-4.22-2.66-7.98-5.2-11.27-2.54-3.3-6.1-5.92-10.67-7.89-4.57-1.96-10.55-2.95-17.95-2.95h-15.08c-6.94,0-12.57.99-16.91,2.95-4.34,1.97-7.72,4.6-10.14,7.89-2.43,3.3-4.07,7.05-4.94,11.27-.87,4.22-1.3,8.64-1.3,13.27s.43,9.05,1.3,13.27c.87,4.22,2.52,7.98,4.94,11.27,2.43,3.3,5.81,5.93,10.14,7.89,4.34,1.97,9.97,2.95,16.91,2.95h15.08Z"/>
        <path class="cls-1" d="M1075.28,119.3V39.87c0-3.7-1.45-6.82-4.34-9.37-2.89-2.54-6.65-3.82-11.27-3.82h-49.6v92.6h-32.26V2.24h84.63c14.34,0,25.38,3.01,33.12,9.02,7.74,6.01,11.62,14.74,11.62,26.18v81.85h-31.91Z"/>
      </g>
      <g>
        <path class="cls-1" d="M272.27,183.23h21.24v5.77h-21.24v17.16h-6.31v-44.56h29.24v5.77h-22.93v15.85Z"/>
        <path class="cls-1" d="M415.65,161.6l17.01,44.56h-6.77l-3.23-8.47h-22.93l-3.23,8.47h-6.77l17.01-44.56h8.93ZM401.87,191.92h18.55l-9.24-24.24-9.31,24.24Z"/>
        <path class="cls-1" d="M530.55,199.39l4.54-3.62c2.31,2.38,7.08,5.46,12.77,5.46,8.16,0,9.7-5.31,9.7-6.62,0-9.24-26.09-5.54-26.09-22.16,0-4.08,2.85-11.62,15.08-11.62,8.85,0,13.39,4.16,15.24,6.62-1.69,1.15-2.77,2.15-4.39,3.31-2.92-2.92-7.47-4.16-11.39-4.16-4.23,0-8.23,2.08-8.23,6.39,0,11.31,26.09,6.23,26.09,22.16,0,4.16-3.85,11.85-16.39,11.85-9.77,0-14.62-4.54-16.93-7.62Z"/>
        <path class="cls-1" d="M695.62,161.6h6.31v44.56h-6.31v-17.09h-23.86v17.09h-6.31v-44.56h6.31v21.7h23.86v-21.7Z"/>
        <path class="cls-1" d="M805.06,161.6h6.31v44.56h-6.31v-44.56Z"/>
        <path class="cls-1" d="M960.82,183.92c0,12.77-10.47,23.09-23.55,23.09s-23.55-10.32-23.55-23.09,10.47-23.09,23.55-23.09,23.55,10.31,23.55,23.09ZM954.51,183.92c0-9.85-7.85-17.31-17.24-17.31s-17.24,7.46-17.24,17.31,7.85,17.32,17.24,17.32,17.24-7.85,17.24-17.32Z"/>
        <path class="cls-1" d="M1095.5,161.6h6.31v44.56h-6.39l-25.94-34.25v34.25h-6.31v-44.56h6.39l25.94,34.17v-34.17Z"/>
      </g>
      <g>
        <path class="cls-2" d="M239.46,206.16h-118.23l-41.8-84.91-24.01,56.84H0l29.81-70.57c12.25-29,47.62-40.03,74.18-23.14l135.47,121.77Z"/>
        <path class="cls-2" d="M204.66,70.68l-14.15,33.49h-55.4l22.42-53.12-103.92.11L75.19.09,157.75,0c36.43-.02,61.07,37.12,46.91,70.68Z"/>
      </g>
    </g>
  </g>
</svg>